<?xml version="1.0"?>
<svg xmlns="http://www.w3.org/2000/svg" xmlns:xlink="http://www.w3.org/1999/xlink" xmlns:svgjs="http://svgjs.com/svgjs" version="1.1" width="512" height="512" x="0" y="0" viewBox="0 0 512 512.00073" style="enable-background:new 0 0 512 512" xml:space="preserve" class=""><g><path xmlns="http://www.w3.org/2000/svg" d="m473.492188 134.789062c-.007813-.34375-.023438-.6875-.050782-1.03125-.011718-.121093-.019531-.238281-.03125-.359374-.097656-.886719-.273437-1.761719-.523437-2.617188-.03125-.101562-.066407-.203125-.097657-.304688-.109374-.347656-.234374-.691406-.367187-1.03125-.035156-.082031-.066406-.167968-.101563-.253906-.351562-.835937-.78125-1.640625-1.285156-2.410156-.046875-.070312-.097656-.136719-.144531-.207031-.214844-.320313-.449219-.632813-.691406-.9375-.050781-.0625-.101563-.128907-.152344-.1875-.296875-.359375-.605469-.710938-.9375-1.042969l-120.019531-120.015625c-.351563-.351563-.714844-.671875-1.09375-.980469-.007813-.007812-.015625-.011718-.023438-.019531-.375-.304687-.761718-.59375-1.160156-.859375-.003906 0-.007812-.003906-.015625-.007812-2.605469-1.738282-5.671875-2.6093755-8.765625-2.5156255h-264.53125c-8.285156 0-15 6.7148435-15 14.9999995v186.085938h-43.5c-8.285156 0-15 6.71875-15 15v183.023438c0 8.28125 6.714844 15 15 15h43.5v82.882812c0 8.285156 6.714844 15 15 15h385c8.285156 0 15.003906-6.714844 15.003906-15v-361.980469c0-.078125-.011718-.152343-.011718-.230469zm-120.011719-83.570312 68.800781 68.792969h-68.800781zm-323.480469 179.875h293.5v153.023438h-293.5zm58.5 250.90625v-67.886719h250c8.285156 0 15-6.714843 15-15v-183.019531c0-8.28125-6.714844-15-15-15h-250v-171.085938h234.980469v105.007813c0 8.28125 6.71875 15 15 15h105.019531v331.984375zm0 0" fill="#7347c1" data-original="#000000" style="" class=""/><path xmlns="http://www.w3.org/2000/svg" d="m83.613281 353.386719v-30.238281h13.859375c19.320313 0 34.441406-8.960938 34.441406-32.480469v-.699219c0-23.519531-14.5625-32.199219-33.039062-32.199219h-28.980469c-4.902343 0-8.121093 3.078125-8.121093 6.578125v89.039063c0 4.480469 5.460937 6.722656 10.917968 6.722656 5.460938 0 10.921875-2.238281 10.921875-6.722656zm0-76.578125h13.859375c7.839844 0 12.601563 4.480468 12.601563 14v1.539062c0 9.519532-4.761719 14-12.601563 14h-13.859375zm0 0" fill="#7347c1" data-original="#000000" style="" class=""/><path xmlns="http://www.w3.org/2000/svg" d="m173.351562 341.910156c-13.019531 0-17.222656-10.359375-23.800781-10.359375-5.320312 0-9.519531 7-9.519531 11.757813 0 9.242187 15.398438 18.199218 33.738281 18.199218 20.300781 0 35-10.917968 35-31.078124 0-35.28125-44.378906-32.621094-44.378906-46.621094 0-4.339844 4.058594-8.398438 14-8.398438 11.480469 0 14.140625 5.320313 19.179687 5.320313 6.160157 0 8.679688-7.699219 8.679688-11.480469 0-10.917969-20.4375-12.320312-27.859375-12.320312-17.5 0-35.839844 7.980468-35.839844 28.980468 0 32.761719 44.378907 29.820313 44.378907 46.761719 0 6.71875-7.140626 9.238281-13.578126 9.238281zm0 0" fill="#7347c1" data-original="#000000" style="" class=""/><path xmlns="http://www.w3.org/2000/svg" d="m232.570312 360.109375h24.78125c19.320313 0 34.4375-8.960937 34.4375-33.042969v-36.257812c0-24.078125-15.117187-33.039063-34.4375-33.039063h-24.78125c-5.738281 0-9.519531 3.078125-9.519531 6.578125v89.179688c0 3.5 3.78125 6.582031 9.519531 6.582031zm12.320313-83.300781h12.460937c7.839844 0 12.597657 4.480468 12.597657 14v36.257812c0 9.523438-4.757813 14.003906-12.597657 14.003906h-12.460937zm0 0" fill="#7347c1" data-original="#000000" style="" class=""/></g></svg>
