<svg id="Layer_1" enable-background="new 0 0 512 512" height="512" viewBox="0 0 512 512" width="512" xmlns="http://www.w3.org/2000/svg"><g><path d="m400.225 512h-288.45c-5.69 0-10.302-4.612-10.302-10.302v-22.095c0-51.375 41.647-93.022 93.022-93.022h123.01c51.375 0 93.022 41.647 93.022 93.022v22.095c0 5.69-4.612 10.302-10.302 10.302z" fill="#22b37f"/><path d="m317.505 386.581h-30.905c51.375 0 93.022 41.648 93.022 93.022v22.095c0 5.69-4.612 10.302-10.302 10.302h30.905c5.69 0 10.302-4.612 10.302-10.302v-22.095c0-51.374-41.647-93.022-93.022-93.022z" fill="#09a76d"/><path d="m225.095 322.562h61.811v100.509h-61.811z" fill="#d78878"/><path d="m256 322.562h30.905v100.509h-30.905z" fill="#ca6e59"/><g fill="#ca6e59"><path d="m170.386 219.763c0 22.539-13.784 40.811-30.787 40.811s-26.881-20.983-26.881-43.523 9.877-38.099 26.881-38.099 30.787 18.272 30.787 40.811z"/><path d="m341.614 219.763c0 22.539 13.784 40.811 30.787 40.811s26.881-20.983 26.881-43.523-9.877-38.099-26.881-38.099-30.787 18.272-30.787 40.811z"/></g><path d="m156.634 243.017v-67.614c0-54.878 44.487-99.366 99.366-99.366 54.878 0 99.366 44.487 99.366 99.366v67.24c-1.08 55.617-26.439 99.553-99.553 99.553s-99.179-44.404-99.179-99.179z" fill="#d78878"/><path d="m256 76.037c-5.257 0-10.417.412-15.453 1.198 47.539 7.423 83.913 48.546 83.913 98.168v67.24c-1 51.491-22.816 92.964-84.067 98.835 4.891.47 10.024.718 15.419.718 73.114 0 98.472-43.935 99.553-99.553v-67.24c.001-54.878-44.487-99.366-99.365-99.366z" fill="#ca6e59"/><g><path d="m247.924 268.522c3.057.798 5.566 1.197 8.076 1.197s5.019-.399 8.076-1.197c4.008-1.047 6.408-5.144 5.362-9.152-1.046-4.007-5.143-6.405-9.152-5.362-3.605.941-4.967.941-8.572 0-4.011-1.045-8.105 1.354-9.152 5.362s1.354 8.106 5.362 9.152z" fill="#ca6e59"/><path d="m238.229 181.871c1.046-4.008-1.354-8.105-5.362-9.151-11.642-3.039-18.739-3.039-30.381 0-4.008 1.046-6.409 5.144-5.362 9.151 1.046 4.008 5.146 6.409 9.151 5.362 9.164-2.393 13.639-2.393 22.803 0 .635.166 1.272.245 1.899.245 3.331 0 6.372-2.235 7.252-5.607z" fill="#855151"/><path d="m309.514 172.719c-11.642-3.039-18.739-3.039-30.381 0-4.008 1.046-6.409 5.144-5.362 9.151 1.047 4.008 5.144 6.409 9.151 5.362 9.164-2.393 13.639-2.393 22.803 0 .635.166 1.272.245 1.899.245 3.33 0 6.371-2.235 7.252-5.607 1.046-4.007-1.355-8.104-5.362-9.151z" fill="#855151"/><path d="m271.771 280.405c-9.728 5.413-21.813 5.414-31.542 0-3.621-2.015-8.186-.714-10.201 2.906-2.015 3.619-.713 8.187 2.906 10.201 7.114 3.96 15.088 5.939 23.065 5.939 7.975 0 15.953-1.98 23.066-5.939 3.619-2.014 4.92-6.581 2.906-10.201-2.013-3.619-6.58-4.922-10.2-2.906z" fill="#ca6e59"/><g fill="#855151"><path d="m212.732 208.459c-4.142 0-7.5 3.358-7.5 7.5v6.181c0 4.142 3.358 7.5 7.5 7.5s7.5-3.358 7.5-7.5v-6.181c0-4.142-3.357-7.5-7.5-7.5z"/><path d="m299.268 208.459c-4.142 0-7.5 3.358-7.5 7.5v6.181c0 4.142 3.358 7.5 7.5 7.5s7.5-3.358 7.5-7.5v-6.181c0-4.142-3.358-7.5-7.5-7.5z"/></g></g><path d="m281.755 474.398c0-7.396 5.996-13.392 13.392-13.392h45.328c7.396 0 13.392 5.996 13.392 13.392 0 7.396-5.996 13.392-13.392 13.392h-45.328c-7.397.001-13.392-5.995-13.392-13.392z" fill="#e94444"/><path d="m225.095 362.363s-2.958 40.977 30.905 60.707c0 0-19.256 21.501-38.733 14.671-15.432-5.411-24.165-34.196-27.126-45.919-.747-2.955.441-6.056 2.964-7.767z" fill="#f3f0f3"/><path d="m286.905 362.363s2.958 40.977-30.905 60.707c0 0 19.256 21.501 38.733 14.671 15.432-5.411 24.165-34.196 27.126-45.919.747-2.955-.441-6.056-2.964-7.767z" fill="#f3f0f3"/><path d="m379.877 181.898c7.263-4.469 12.107-12.49 12.107-21.643 0-9.303-5.003-17.437-12.464-21.861-.817-.484-.877-1.623-.111-2.184 6.317-4.62 10.421-12.087 10.421-20.513 0-7.813-3.53-14.8-9.08-19.459-.93-.781-.951-2.237-.037-3.038 4.94-4.326 8.018-10.415 8.018-17.164 0-10.441-7.362-19.305-17.595-22.499-.885-.276-1.44-1.139-1.376-2.064.033-.473.05-.949.05-1.429 0-13.13-11.637-23.773-25.992-23.773-4.195 0-8.156.912-11.663 2.528-1.12.516-2.405-.056-2.797-1.225-3.419-10.192-13.79-17.602-26.053-17.602-6.64 0-12.723 2.174-17.45 5.784-1.01.771-2.438.477-3.051-.636-4.934-8.965-15.08-15.12-26.804-15.12s-21.87 6.155-26.804 15.121c-.613 1.113-2.041 1.407-3.051.636-4.727-3.61-10.81-5.784-17.45-5.784-12.263 0-22.634 7.41-26.053 17.602-.392 1.169-1.677 1.741-2.797 1.225-3.507-1.616-7.468-2.528-11.663-2.528-14.355 0-25.992 10.644-25.992 23.773 0 .48.017.956.05 1.429.064.925-.491 1.788-1.376 2.064-10.233 3.194-17.595 12.058-17.595 22.499 0 6.749 3.079 12.838 8.018 17.164.914.8.893 2.257-.037 3.038-5.55 4.658-9.08 11.645-9.08 19.459 0 8.426 4.104 15.893 10.421 20.513.767.561.706 1.699-.111 2.184-7.462 4.424-12.464 12.558-12.464 21.861 0 9.153 4.844 17.173 12.106 21.643.657.404.794 1.298.313 1.901-2.869 3.598-4.411 8.298-3.843 13.375.973 8.709 8.262 15.573 17.011 16.061 10.507.586 19.21-7.761 19.21-18.14 0-4.48-1.632-8.571-4.323-11.735-.762-.895-.561-2.236.371-2.952 6.048-4.642 9.95-11.94 9.95-20.153 0-1.278-.095-2.534-.279-3.761-.182-1.221.727-2.328 1.962-2.328h.025c12.194 0 22.374-8.595 24.828-20.057.222-1.036 1.19-1.729 2.241-1.598 1.185.148 2.391.226 3.616.226 11.286 0 21.083-6.367 25.999-15.705.604-1.148 2.069-1.48 3.098-.69 6.568 5.04 14.781 8.041 23.699 8.041s17.132-3.001 23.699-8.041c1.029-.79 2.493-.457 3.098.69 4.916 9.337 14.713 15.705 25.999 15.705 1.225 0 2.431-.078 3.616-.226 1.051-.131 2.019.563 2.241 1.598 2.453 11.461 12.634 20.057 24.828 20.057h.025c1.235 0 2.144 1.107 1.962 2.328-.183 1.227-.279 2.483-.279 3.761 0 8.212 3.901 15.51 9.948 20.151.928.712 1.142 2.052.383 2.943-3.202 3.759-4.908 8.828-4.156 14.306 1.114 8.12 7.751 14.581 15.896 15.492 10.973 1.228 20.265-7.326 20.265-18.051 0-4.278-1.489-8.2-3.964-11.302-.48-.602-.338-1.494.316-1.897z" fill="#9b5e5e"/><g><path d="m379.877 181.898c7.263-4.469 12.107-12.489 12.107-21.643 0-9.303-5.003-17.437-12.464-21.861-.817-.484-.877-1.623-.111-2.184 6.317-4.62 10.421-12.087 10.421-20.513 0-7.813-3.53-14.8-9.08-19.459-.93-.781-.951-2.238-.037-3.038 4.94-4.326 8.018-10.415 8.018-17.164 0-10.441-7.362-19.305-17.595-22.499-.885-.276-1.44-1.14-1.376-2.064.033-.473.05-.949.05-1.429 0-13.13-11.637-23.773-25.992-23.773-4.195 0-8.156.912-11.663 2.528-.535.246-1.104.239-1.599.043.603 2.009.931 4.121.931 6.304 0 .48-.017.956-.05 1.429-.064.925.491 1.788 1.376 2.064 10.233 3.194 17.595 12.058 17.595 22.499 0 6.749-3.079 12.838-8.018 17.164-.914.8-.893 2.257.037 3.037 5.55 4.658 9.08 11.645 9.08 19.459 0 8.426-4.104 15.893-10.421 20.513-.767.561-.706 1.699.111 2.184 7.462 4.424 12.464 12.558 12.464 21.861 0 8.953-4.64 16.812-11.639 21.334 1.447 5.532 4.706 10.331 9.114 13.715.928.712 1.142 2.052.383 2.943-3.202 3.759-4.908 8.828-4.156 14.306 1.114 8.12 7.751 14.581 15.896 15.492 10.973 1.228 20.265-7.326 20.265-18.051 0-4.278-1.489-8.2-3.964-11.302-.479-.6-.337-1.492.317-1.895z" fill="#855151"/></g></g></svg>